<mxfile host="app.diagrams.net" modified="2023-08-14T05:16:14.324Z" agent="Mozilla/5.0 (Windows NT 10.0; Win64; x64) AppleWebKit/537.36 (KHTML, like Gecko) Chrome/115.0.0.0 Safari/537.36" etag="MTZuZgY0YvWP0jn-nzsV" version="21.6.8" type="device">
  <diagram id="C5RBs43oDa-KdzZeNtuy" name="Page-1">
    <mxGraphModel dx="1562" dy="862" grid="1" gridSize="10" guides="1" tooltips="1" connect="1" arrows="1" fold="1" page="1" pageScale="1" pageWidth="827" pageHeight="1169" math="0" shadow="0">
      <root>
        <mxCell id="WIyWlLk6GJQsqaUBKTNV-0" />
        <mxCell id="WIyWlLk6GJQsqaUBKTNV-1" parent="WIyWlLk6GJQsqaUBKTNV-0" />
        <mxCell id="6Vaw523_YT2pN23cjjQA-14" value="Shape" style="swimlane;childLayout=stackLayout;horizontal=1;startSize=50;horizontalStack=0;rounded=1;fontSize=14;fontStyle=0;strokeWidth=2;resizeParent=0;resizeLast=1;shadow=0;dashed=0;align=center;arcSize=4;whiteSpace=wrap;html=1;" vertex="1" parent="WIyWlLk6GJQsqaUBKTNV-1">
          <mxGeometry x="310" y="80" width="160" height="120" as="geometry" />
        </mxCell>
        <mxCell id="6Vaw523_YT2pN23cjjQA-15" value="- abstract area()&lt;br&gt;- abstract perimeter()&lt;br&gt;" style="align=left;strokeColor=none;fillColor=none;spacingLeft=4;fontSize=12;verticalAlign=top;resizable=0;rotatable=0;part=1;html=1;" vertex="1" parent="6Vaw523_YT2pN23cjjQA-14">
          <mxGeometry y="50" width="160" height="70" as="geometry" />
        </mxCell>
        <mxCell id="6Vaw523_YT2pN23cjjQA-16" value="Circle" style="swimlane;childLayout=stackLayout;horizontal=1;startSize=50;horizontalStack=0;rounded=1;fontSize=14;fontStyle=0;strokeWidth=2;resizeParent=0;resizeLast=1;shadow=0;dashed=0;align=center;arcSize=4;whiteSpace=wrap;html=1;" vertex="1" parent="WIyWlLk6GJQsqaUBKTNV-1">
          <mxGeometry x="520" y="300" width="160" height="140" as="geometry" />
        </mxCell>
        <mxCell id="6Vaw523_YT2pN23cjjQA-17" value="- radius: double&lt;br&gt;+ Circle(...)&lt;br&gt;+ area()&lt;br&gt;+ perimeter()&lt;br&gt;+ toString()" style="align=left;strokeColor=none;fillColor=none;spacingLeft=4;fontSize=12;verticalAlign=top;resizable=0;rotatable=0;part=1;html=1;" vertex="1" parent="6Vaw523_YT2pN23cjjQA-16">
          <mxGeometry y="50" width="160" height="90" as="geometry" />
        </mxCell>
        <mxCell id="6Vaw523_YT2pN23cjjQA-18" value="Rectangle" style="swimlane;childLayout=stackLayout;horizontal=1;startSize=50;horizontalStack=0;rounded=1;fontSize=14;fontStyle=0;strokeWidth=2;resizeParent=0;resizeLast=1;shadow=0;dashed=0;align=center;arcSize=4;whiteSpace=wrap;html=1;" vertex="1" parent="WIyWlLk6GJQsqaUBKTNV-1">
          <mxGeometry x="100" y="300" width="160" height="160" as="geometry" />
        </mxCell>
        <mxCell id="6Vaw523_YT2pN23cjjQA-19" value="- width: double&lt;br&gt;- length: double&lt;br&gt;+ Rectangle(...)&lt;br&gt;+ area()&lt;br&gt;+ perimeter()&lt;br&gt;+ toString()" style="align=left;strokeColor=none;fillColor=none;spacingLeft=4;fontSize=12;verticalAlign=top;resizable=0;rotatable=0;part=1;html=1;" vertex="1" parent="6Vaw523_YT2pN23cjjQA-18">
          <mxGeometry y="50" width="160" height="110" as="geometry" />
        </mxCell>
        <mxCell id="6Vaw523_YT2pN23cjjQA-22" value="Triangle" style="swimlane;childLayout=stackLayout;horizontal=1;startSize=50;horizontalStack=0;rounded=1;fontSize=14;fontStyle=0;strokeWidth=2;resizeParent=0;resizeLast=1;shadow=0;dashed=0;align=center;arcSize=4;whiteSpace=wrap;html=1;" vertex="1" parent="WIyWlLk6GJQsqaUBKTNV-1">
          <mxGeometry x="310" y="300" width="160" height="170" as="geometry" />
        </mxCell>
        <mxCell id="6Vaw523_YT2pN23cjjQA-23" value="- side1: double&lt;br&gt;- side2: double&lt;br&gt;- side3: double&lt;br&gt;+ Rectangle(...)&lt;br&gt;+ area()&lt;br&gt;+ perimeter()&lt;br&gt;+ toString()" style="align=left;strokeColor=none;fillColor=none;spacingLeft=4;fontSize=12;verticalAlign=top;resizable=0;rotatable=0;part=1;html=1;" vertex="1" parent="6Vaw523_YT2pN23cjjQA-22">
          <mxGeometry y="50" width="160" height="120" as="geometry" />
        </mxCell>
        <mxCell id="6Vaw523_YT2pN23cjjQA-27" style="edgeStyle=orthogonalEdgeStyle;rounded=0;orthogonalLoop=1;jettySize=auto;html=1;exitX=0.5;exitY=1;exitDx=0;exitDy=0;" edge="1" parent="WIyWlLk6GJQsqaUBKTNV-1" source="6Vaw523_YT2pN23cjjQA-15" target="6Vaw523_YT2pN23cjjQA-22">
          <mxGeometry relative="1" as="geometry" />
        </mxCell>
        <mxCell id="6Vaw523_YT2pN23cjjQA-28" style="edgeStyle=orthogonalEdgeStyle;rounded=0;orthogonalLoop=1;jettySize=auto;html=1;exitX=0.25;exitY=1;exitDx=0;exitDy=0;entryX=0.5;entryY=0;entryDx=0;entryDy=0;" edge="1" parent="WIyWlLk6GJQsqaUBKTNV-1" source="6Vaw523_YT2pN23cjjQA-15" target="6Vaw523_YT2pN23cjjQA-18">
          <mxGeometry relative="1" as="geometry" />
        </mxCell>
        <mxCell id="6Vaw523_YT2pN23cjjQA-29" style="edgeStyle=orthogonalEdgeStyle;rounded=0;orthogonalLoop=1;jettySize=auto;html=1;exitX=0.75;exitY=1;exitDx=0;exitDy=0;entryX=0.5;entryY=0;entryDx=0;entryDy=0;" edge="1" parent="WIyWlLk6GJQsqaUBKTNV-1" source="6Vaw523_YT2pN23cjjQA-15" target="6Vaw523_YT2pN23cjjQA-16">
          <mxGeometry relative="1" as="geometry" />
        </mxCell>
      </root>
    </mxGraphModel>
  </diagram>
</mxfile>
